<svg xmlns="http://www.w3.org/2000/svg" xmlns:xlink="http://www.w3.org/1999/xlink" width="439" zoomAndPan="magnify" viewBox="0 0 329.25 67.499998" height="90" preserveAspectRatio="xMidYMid meet" version="1.0"><defs><clipPath id="4122a7d093"><path d="M 0.839844 0.496094 L 85.53125 0.496094 L 85.53125 67.003906 L 0.839844 67.003906 Z M 0.839844 0.496094 " clip-rule="nonzero"/></clipPath><clipPath id="4b83f5dad7"><path d="M 3.816406 0.496094 L 82.398438 0.496094 C 83.1875 0.496094 83.945312 0.8125 84.503906 1.371094 C 85.0625 1.929688 85.375 2.6875 85.375 3.476562 L 85.375 64.027344 C 85.375 64.816406 85.0625 65.574219 84.503906 66.132812 C 83.945312 66.691406 83.1875 67.003906 82.398438 67.003906 L 3.816406 67.003906 C 3.027344 67.003906 2.269531 66.691406 1.710938 66.132812 C 1.152344 65.574219 0.839844 64.816406 0.839844 64.027344 L 0.839844 3.476562 C 0.839844 2.6875 1.152344 1.929688 1.710938 1.371094 C 2.269531 0.8125 3.027344 0.496094 3.816406 0.496094 Z M 3.816406 0.496094 " clip-rule="nonzero"/></clipPath><clipPath id="92d7218927"><path d="M 0.839844 0.496094 L 85.410156 0.496094 L 85.410156 67.003906 L 0.839844 67.003906 Z M 0.839844 0.496094 " clip-rule="nonzero"/></clipPath><clipPath id="49b78f09c4"><path d="M 3.816406 0.496094 L 82.398438 0.496094 C 83.1875 0.496094 83.945312 0.8125 84.503906 1.371094 C 85.0625 1.929688 85.375 2.6875 85.375 3.476562 L 85.375 64.027344 C 85.375 64.816406 85.0625 65.574219 84.503906 66.132812 C 83.945312 66.691406 83.1875 67.003906 82.398438 67.003906 L 3.816406 67.003906 C 3.027344 67.003906 2.269531 66.691406 1.710938 66.132812 C 1.152344 65.574219 0.839844 64.816406 0.839844 64.027344 L 0.839844 3.476562 C 0.839844 2.6875 1.152344 1.929688 1.710938 1.371094 C 2.269531 0.8125 3.027344 0.496094 3.816406 0.496094 Z M 3.816406 0.496094 " clip-rule="nonzero"/></clipPath><clipPath id="4290771516"><rect x="0" width="86" y="0" height="68"/></clipPath><clipPath id="e1150f15cc"><path d="M 6 0.996094 L 76 0.996094 L 76 65.765625 L 6 65.765625 Z M 6 0.996094 " clip-rule="nonzero"/></clipPath><clipPath id="33b8ad19f3"><path d="M 5 0 L 77 0 L 77 66.257812 L 5 66.257812 Z M 5 0 " clip-rule="nonzero"/></clipPath></defs><g clip-path="url(#4122a7d093)"><g clip-path="url(#4b83f5dad7)"><g transform="matrix(1, 0, 0, 1, 0.000000000000000111, 0)"><g clip-path="url(#4290771516)"><g clip-path="url(#92d7218927)"><g clip-path="url(#49b78f09c4)"><path fill="#ffffff" d="M 0.839844 0.496094 L 85.269531 0.496094 L 85.269531 67.003906 L 0.839844 67.003906 Z M 0.839844 0.496094 " fill-opacity="1" fill-rule="nonzero"/></g></g></g></g></g></g><path fill="#000000" d="M 89.859375 54.273438 L 89.859375 11.789062 L 101.28125 11.789062 C 104.050781 11.789062 106.445312 12.320312 108.464844 13.375 C 110.484375 14.433594 112.027344 15.96875 113.089844 17.980469 C 114.152344 19.992188 114.679688 22.40625 114.679688 25.214844 C 114.679688 27.949219 114.125 30.296875 113.011719 32.257812 C 111.898438 34.21875 110.292969 35.714844 108.195312 36.746094 C 106.097656 37.777344 103.609375 38.292969 100.734375 38.292969 L 96.539062 38.292969 L 96.539062 54.273438 Z M 96.539062 33.03125 L 100.582031 33.03125 C 105.628906 33.03125 108.15625 30.441406 108.15625 25.253906 C 108.15625 22.726562 107.535156 20.765625 106.289062 19.375 C 105.046875 17.980469 103.246094 17.285156 100.890625 17.285156 L 96.539062 17.285156 Z M 128.199219 22.160156 C 131.566406 22.160156 134.234375 23.011719 136.203125 24.714844 C 138.171875 26.414062 139.15625 28.96875 139.15625 32.375 L 139.15625 54.273438 L 133.597656 54.273438 L 133.328125 49.476562 L 132.898438 49.476562 C 132.382812 50.6875 131.683594 51.707031 130.800781 52.53125 C 129.894531 53.332031 128.925781 53.9375 127.890625 54.351562 C 126.851562 54.765625 125.84375 54.96875 124.859375 54.96875 C 123.226562 54.96875 121.789062 54.621094 120.546875 53.925781 C 119.304688 53.230469 118.347656 52.261719 117.671875 51.023438 C 116.972656 49.785156 116.625 48.378906 116.625 46.804688 C 116.625 44.640625 117.078125 42.808594 117.984375 41.3125 C 118.863281 39.816406 120.199219 38.511719 121.984375 37.402344 C 123.382812 36.527344 125.039062 35.792969 126.957031 35.199219 C 128.847656 34.578125 130.90625 34.128906 133.132812 33.84375 L 133.132812 32.761719 C 133.238281 30.800781 132.886719 29.371094 132.085938 28.464844 C 131.28125 27.5625 130.011719 27.113281 128.277344 27.113281 C 126.722656 27.113281 125.441406 27.523438 124.433594 28.351562 C 123.421875 29.148438 122.605469 30.296875 121.984375 31.792969 L 117.128906 29.433594 C 118.0625 26.984375 119.472656 25.152344 121.363281 23.9375 C 123.28125 22.753906 125.558594 22.160156 128.199219 22.160156 Z M 126.839844 49.863281 C 128.238281 49.835938 129.457031 49.359375 130.492188 48.429688 C 131.5 47.527344 132.355469 46.34375 133.054688 44.871094 L 133.054688 38.371094 C 131.683594 38.527344 130.375 38.824219 129.132812 39.261719 C 127.890625 39.675781 126.800781 40.214844 125.871094 40.886719 C 123.902344 42.28125 122.917969 43.980469 122.917969 45.992188 C 122.917969 46.820312 123.097656 47.527344 123.460938 48.121094 C 123.824219 48.742188 124.300781 49.191406 124.898438 49.476562 C 125.492188 49.785156 126.140625 49.914062 126.839844 49.863281 Z M 173.261719 22.738281 L 179.90625 22.738281 L 174.117188 54.273438 L 165.804688 54.273438 L 161.179688 30.902344 L 160.949219 30.902344 L 156.402344 54.351562 L 148.089844 54.351562 L 142.339844 22.738281 L 149.023438 22.738281 L 152.480469 48.972656 L 158.34375 22.738281 L 163.859375 22.738281 L 169.6875 49.050781 Z M 223.722656 54.3125 L 216.535156 54.3125 L 208.613281 38.292969 L 203.71875 38.292969 L 203.71875 54.273438 L 197.035156 54.273438 L 197.035156 11.789062 L 208.457031 11.789062 C 211.226562 11.789062 213.625 12.320312 215.644531 13.375 C 217.664062 14.433594 219.203125 15.96875 220.265625 17.980469 C 221.328125 19.992188 221.859375 22.40625 221.859375 25.214844 C 221.859375 28.105469 221.222656 30.570312 219.957031 32.605469 C 218.710938 34.644531 216.925781 36.140625 214.59375 37.09375 Z M 203.71875 17.285156 L 203.71875 33.03125 L 207.757812 33.03125 C 212.808594 33.03125 215.332031 30.441406 215.332031 25.253906 C 215.332031 22.726562 214.710938 20.765625 213.46875 19.375 C 212.226562 17.980469 210.425781 17.285156 208.066406 17.285156 Z M 249.75 37.480469 C 249.75 38.847656 249.699219 39.816406 249.59375 40.382812 L 232.191406 40.382812 C 232.21875 42.113281 232.503906 43.671875 233.046875 45.066406 C 233.589844 46.457031 234.378906 47.566406 235.417969 48.394531 C 236.453125 49.191406 237.695312 49.59375 239.144531 49.59375 C 241.503906 49.59375 243.40625 48.558594 244.855469 46.496094 L 249.207031 48.816406 C 248.042969 51.035156 246.589844 52.609375 244.855469 53.539062 C 243.121094 54.46875 241.140625 54.929688 238.914062 54.929688 C 236.21875 54.929688 233.886719 54.222656 231.917969 52.804688 C 229.953125 51.410156 228.449219 49.476562 227.414062 47 C 226.402344 44.550781 225.898438 41.75 225.898438 38.605469 C 225.898438 35.457031 226.3125 32.65625 227.140625 30.207031 C 227.96875 27.730469 229.304688 25.769531 231.144531 24.328125 C 232.957031 22.882812 235.285156 22.160156 238.136719 22.160156 C 242.355469 22.160156 245.347656 23.578125 247.109375 26.414062 C 248.871094 29.277344 249.75 32.96875 249.75 37.480469 Z M 238.289062 27.265625 C 236.167969 27.265625 234.640625 28.066406 233.707031 29.664062 C 232.800781 31.289062 232.308594 33.378906 232.230469 35.933594 L 244.234375 35.933594 C 244.183594 34.050781 243.988281 32.492188 243.652344 31.253906 C 243.289062 30.015625 242.679688 29.046875 241.824219 28.351562 C 240.972656 27.628906 239.792969 27.265625 238.289062 27.265625 Z M 254.917969 54.273438 L 254.917969 11.789062 L 261.40625 11.789062 L 261.40625 54.273438 Z M 268.589844 18.136719 L 268.589844 11.789062 L 275.078125 11.789062 L 275.078125 18.136719 Z M 268.550781 54.273438 L 268.550781 22.738281 L 275.078125 22.738281 L 275.078125 54.273438 Z M 304.058594 37.480469 C 304.058594 38.847656 304.007812 39.816406 303.902344 40.382812 L 286.5 40.382812 C 286.523438 42.113281 286.808594 43.671875 287.355469 45.066406 C 287.898438 46.457031 288.6875 47.566406 289.722656 48.394531 C 290.757812 49.191406 292.003906 49.59375 293.453125 49.59375 C 295.808594 49.59375 297.710938 48.558594 299.164062 46.496094 L 303.515625 48.816406 C 302.347656 51.035156 300.898438 52.609375 299.164062 53.539062 C 297.429688 54.46875 295.433594 54.929688 293.179688 54.929688 C 290.511719 54.929688 288.195312 54.222656 286.226562 52.804688 C 284.257812 51.410156 282.757812 49.476562 281.722656 47 C 280.710938 44.550781 280.207031 41.75 280.207031 38.605469 C 280.207031 35.457031 280.621094 32.65625 281.449219 30.207031 C 282.277344 27.730469 283.613281 25.769531 285.449219 24.328125 C 287.261719 22.882812 289.59375 22.160156 292.441406 22.160156 C 296.664062 22.160156 299.65625 23.578125 301.417969 26.414062 C 303.175781 29.277344 304.058594 32.96875 304.058594 37.480469 Z M 292.597656 27.265625 C 290.472656 27.265625 288.945312 28.066406 288.015625 29.664062 C 287.109375 31.289062 286.617188 33.378906 286.539062 35.933594 L 298.542969 35.933594 C 298.488281 34.050781 298.296875 32.492188 297.957031 31.253906 C 297.597656 30.015625 296.988281 29.046875 296.132812 28.351562 C 295.277344 27.628906 294.101562 27.265625 292.597656 27.265625 Z M 310.15625 54.273438 L 310.15625 27.226562 L 305.960938 27.226562 L 305.960938 22.738281 L 310.234375 22.738281 L 310.234375 20.726562 C 310.234375 17.992188 310.894531 15.828125 312.214844 14.226562 C 313.535156 12.601562 315.425781 11.789062 317.886719 11.789062 L 322.238281 11.789062 L 322.238281 16.433594 L 319.636719 16.433594 C 318.625 16.433594 317.835938 16.808594 317.265625 17.554688 C 316.722656 18.277344 316.449219 19.269531 316.449219 20.535156 L 316.449219 22.738281 L 322.238281 22.738281 L 322.238281 27.226562 L 316.605469 27.226562 L 316.605469 54.273438 Z M 310.15625 54.273438 " fill-opacity="1" fill-rule="nonzero"/><g clip-path="url(#e1150f15cc)"><path fill="#000000" d="M 40.992188 28.972656 C 31.921875 28.972656 24.109375 34.601562 20.09375 44.03125 C 16.917969 51.492188 17.15625 59.234375 20.675781 62.859375 C 22.546875 64.789062 24.710938 65.765625 27.105469 65.765625 C 30.550781 65.765625 33.695312 63.761719 36.46875 61.988281 C 38.128906 60.929688 40.011719 59.726562 40.992188 59.726562 C 41.992188 59.726562 43.917969 60.921875 45.617188 61.976562 C 48.421875 63.714844 51.597656 65.6875 55.011719 65.6875 C 57.378906 65.6875 59.5 64.734375 61.308594 62.851562 C 64.910156 59.117188 65.179688 51.253906 61.960938 43.730469 C 58.003906 34.488281 50.164062 28.972656 40.992188 28.972656 Z M 58.179688 59.863281 C 57.191406 60.890625 56.183594 61.371094 55.007812 61.371094 C 52.835938 61.371094 50.21875 59.746094 47.910156 58.3125 C 45.503906 56.820312 43.230469 55.410156 40.992188 55.410156 C 38.742188 55.410156 36.5 56.839844 34.128906 58.355469 C 31.855469 59.804688 29.28125 61.449219 27.105469 61.449219 C 25.898438 61.449219 24.847656 60.945312 23.792969 59.859375 C 21.835938 57.84375 21.410156 52 24.085938 45.71875 C 25.328125 42.800781 30.214844 33.289062 40.992188 33.289062 C 51.628906 33.289062 56.410156 41.777344 57.96875 45.425781 C 60.691406 51.777344 60.214844 57.753906 58.179688 59.863281 Z M 31.933594 25.484375 C 32.363281 25.484375 32.792969 25.441406 33.210938 25.355469 C 37.964844 24.390625 40.703125 18.328125 39.453125 11.550781 C 38.320312 5.4375 34.316406 0.996094 29.925781 0.996094 C 29.496094 0.996094 29.070312 1.039062 28.648438 1.125 C 23.898438 2.089844 21.15625 8.152344 22.40625 14.929688 C 23.539062 21.046875 27.542969 25.484375 31.933594 25.484375 Z M 29.515625 5.355469 C 29.648438 5.328125 29.789062 5.316406 29.925781 5.316406 C 31.832031 5.316406 34.386719 8 35.1875 12.335938 C 36.050781 17 34.382812 20.710938 32.34375 21.125 C 32.210938 21.152344 32.070312 21.167969 31.933594 21.167969 C 30.027344 21.167969 27.472656 18.484375 26.671875 14.148438 C 25.808594 9.484375 27.476562 5.769531 29.515625 5.355469 Z M 21.386719 23.003906 C 19.21875 19.867188 15.964844 17.917969 12.894531 17.917969 C 11.414062 17.917969 10.039062 18.371094 8.914062 19.226562 C 5.382812 21.90625 5.203125 27.75 8.503906 32.527344 C 10.671875 35.664062 13.925781 37.613281 16.996094 37.613281 C 18.472656 37.613281 19.851562 37.160156 20.976562 36.308594 C 24.503906 33.625 24.6875 27.78125 21.386719 23.003906 Z M 18.347656 32.875 C 17.976562 33.152344 17.523438 33.296875 16.996094 33.296875 C 15.355469 33.296875 13.425781 32.03125 12.074219 30.078125 C 9.984375 27.054688 10.117188 23.742188 11.542969 22.660156 C 11.910156 22.378906 12.367188 22.238281 12.894531 22.238281 C 14.53125 22.238281 16.464844 23.5 17.8125 25.453125 C 19.902344 28.476562 19.769531 31.789062 18.347656 32.875 Z M 48.765625 25.355469 C 49.1875 25.441406 49.613281 25.484375 50.042969 25.484375 C 54.429688 25.484375 58.4375 21.046875 59.570312 14.929688 C 60.820312 8.152344 58.078125 2.089844 53.328125 1.125 C 52.90625 1.039062 52.480469 0.996094 52.046875 0.996094 C 47.660156 0.996094 43.652344 5.4375 42.523438 11.550781 C 41.269531 18.328125 44.011719 24.390625 48.765625 25.355469 Z M 46.789062 12.335938 C 47.589844 8 50.140625 5.316406 52.046875 5.316406 C 52.1875 5.316406 52.324219 5.328125 52.460938 5.355469 C 54.496094 5.769531 56.164062 9.484375 55.304688 14.148438 C 54.503906 18.484375 51.949219 21.167969 50.042969 21.167969 C 49.90625 21.167969 49.765625 21.152344 49.632812 21.125 C 47.59375 20.710938 45.925781 17 46.789062 12.335938 Z M 73.0625 19.222656 C 71.9375 18.371094 70.5625 17.917969 69.082031 17.917969 C 66.011719 17.917969 62.757812 19.867188 60.589844 23.003906 C 57.289062 27.78125 57.46875 33.625 61 36.308594 C 62.125 37.160156 63.5 37.613281 64.980469 37.613281 C 68.050781 37.613281 71.304688 35.664062 73.472656 32.527344 C 76.773438 27.75 76.59375 21.90625 73.0625 19.222656 Z M 69.902344 30.078125 C 68.550781 32.03125 66.621094 33.296875 64.980469 33.296875 C 64.453125 33.296875 63.996094 33.152344 63.628906 32.875 C 62.203125 31.789062 62.070312 28.476562 64.160156 25.453125 C 65.511719 23.5 67.445312 22.238281 69.082031 22.238281 C 69.609375 22.238281 70.0625 22.378906 70.433594 22.65625 C 71.859375 23.742188 71.992188 27.054688 69.902344 30.078125 Z M 69.902344 30.078125 " fill-opacity="1" fill-rule="nonzero"/></g><g clip-path="url(#33b8ad19f3)"><path fill="#38b6ff" d="M 40.777344 28.507812 C 31.570312 28.507812 23.644531 34.246094 19.566406 43.855469 C 16.34375 51.457031 16.585938 59.347656 20.160156 63.042969 C 22.058594 65.007812 24.253906 66.003906 26.683594 66.003906 C 30.179688 66.003906 33.371094 63.960938 36.1875 62.15625 C 37.875 61.074219 39.785156 59.851562 40.777344 59.851562 C 41.792969 59.851562 43.75 61.070312 45.472656 62.144531 C 48.320312 63.914062 51.542969 65.921875 55.007812 65.921875 C 57.410156 65.921875 59.5625 64.953125 61.402344 63.035156 C 65.058594 59.226562 65.328125 51.214844 62.0625 43.550781 C 58.046875 34.132812 50.089844 28.507812 40.777344 28.507812 Z M 58.226562 59.988281 C 57.222656 61.035156 56.199219 61.523438 55.007812 61.523438 C 52.800781 61.523438 50.144531 59.867188 47.800781 58.410156 C 45.355469 56.886719 43.050781 55.449219 40.777344 55.449219 C 38.496094 55.449219 36.222656 56.910156 33.8125 58.453125 C 31.507812 59.929688 28.890625 61.605469 26.683594 61.605469 C 25.457031 61.605469 24.390625 61.089844 23.324219 59.984375 C 21.335938 57.929688 20.902344 51.976562 23.617188 45.574219 C 24.878906 42.601562 29.839844 32.910156 40.777344 32.910156 C 51.574219 32.910156 56.425781 41.558594 58.011719 45.277344 C 60.773438 51.75 60.289062 57.839844 58.226562 59.988281 Z M 31.582031 24.957031 C 32.019531 24.957031 32.457031 24.914062 32.882812 24.824219 C 37.703125 23.839844 40.488281 17.660156 39.214844 10.757812 C 38.070312 4.523438 34.003906 0 29.546875 0 C 29.109375 0 28.679688 0.046875 28.25 0.132812 C 23.425781 1.117188 20.644531 7.296875 21.917969 14.199219 C 23.0625 20.433594 27.128906 24.957031 31.582031 24.957031 Z M 29.128906 4.445312 C 29.265625 4.417969 29.40625 4.402344 29.546875 4.402344 C 31.484375 4.402344 34.074219 7.136719 34.886719 11.554688 C 35.761719 16.308594 34.070312 20.09375 32.003906 20.515625 C 31.863281 20.542969 31.722656 20.558594 31.582031 20.558594 C 29.648438 20.558594 27.054688 17.820312 26.242188 13.40625 C 25.371094 8.648438 27.0625 4.867188 29.128906 4.445312 Z M 20.878906 22.429688 C 18.679688 19.230469 15.375 17.246094 12.261719 17.246094 C 10.757812 17.246094 9.363281 17.707031 8.21875 18.578125 C 4.636719 21.308594 4.453125 27.265625 7.804688 32.132812 C 10.003906 35.328125 13.304688 37.316406 16.421875 37.316406 C 17.921875 37.316406 19.320312 36.855469 20.460938 35.984375 C 24.046875 33.25 24.226562 27.296875 20.878906 22.429688 Z M 17.792969 32.484375 C 17.417969 32.769531 16.957031 32.914062 16.421875 32.914062 C 14.757812 32.914062 12.796875 31.628906 11.425781 29.636719 C 9.304688 26.554688 9.441406 23.179688 10.886719 22.074219 C 11.261719 21.789062 11.722656 21.648438 12.257812 21.648438 C 13.921875 21.648438 15.882812 22.933594 17.253906 24.921875 C 19.375 28.003906 19.238281 31.382812 17.792969 32.484375 Z M 48.667969 24.824219 C 49.097656 24.914062 49.527344 24.957031 49.964844 24.957031 C 54.417969 24.957031 58.484375 20.433594 59.632812 14.199219 C 60.902344 7.296875 58.121094 1.117188 53.296875 0.132812 C 52.871094 0.046875 52.4375 0.00390625 52 0.00390625 C 47.546875 0.00390625 43.480469 4.527344 42.332031 10.757812 C 41.0625 17.664062 43.84375 23.839844 48.667969 24.824219 Z M 46.660156 11.554688 C 47.472656 7.136719 50.066406 4.402344 52 4.402344 C 52.140625 4.402344 52.28125 4.417969 52.417969 4.445312 C 54.484375 4.867188 56.179688 8.648438 55.304688 13.402344 C 54.492188 17.820312 51.898438 20.558594 49.964844 20.558594 C 49.824219 20.554688 49.683594 20.542969 49.546875 20.515625 C 47.476562 20.09375 45.785156 16.308594 46.660156 11.554688 Z M 73.328125 18.574219 C 72.1875 17.707031 70.789062 17.246094 69.289062 17.246094 C 66.175781 17.246094 62.871094 19.230469 60.671875 22.429688 C 57.320312 27.296875 57.503906 33.25 61.085938 35.984375 C 62.230469 36.855469 63.625 37.316406 65.125 37.316406 C 68.242188 37.316406 71.546875 35.328125 73.746094 32.132812 C 77.097656 27.265625 76.914062 21.308594 73.328125 18.574219 Z M 70.121094 29.636719 C 68.75 31.628906 66.789062 32.914062 65.125 32.914062 C 64.589844 32.914062 64.128906 32.769531 63.753906 32.484375 C 62.308594 31.382812 62.175781 28.003906 64.292969 24.921875 C 65.664062 22.933594 67.625 21.644531 69.289062 21.644531 C 69.824219 21.644531 70.285156 21.789062 70.660156 22.074219 C 72.109375 23.179688 72.242188 26.554688 70.121094 29.636719 Z M 70.121094 29.636719 " fill-opacity="1" fill-rule="nonzero"/></g></svg>